# xmcd CD database file
#
# Track frame offsets:
#	150
#	26706
#	44096
#	65850
#	88926
#	116011
#	138934
#	158703
#
# Disc length: 2374 seconds
#
# Revision: 0
# Processed by: cddbd v1.5.1PL2 Copyright (c) Steve Scherf et al.
# Submitted via: CDex 1.51
#
DISCID=74094408
DTITLE=Greg Soussan Quartet - Big Apple
DYEAR=2005
DGENRE=Jazz
TTITLE0=Mr J
TTITLE1=Coolin'
TTITLE2=Here's to you (feat. Natalie Williams)
TTITLE3=New York circus
TTITLE4=Now what ?
TTITLE5=Heading south
TTITLE6=W 33RD
TTITLE7=Back in time
EXTD=YEAR: 2005
EXTT0=
EXTT1=
EXTT2=
EXTT3=
EXTT4=
EXTT5=
EXTT6=
EXTT7=
PLAYORDER=
